<svg id="Layer_1" data-name="Layer 1" xmlns="http://www.w3.org/2000/svg" xmlns:xlink="http://www.w3.org/1999/xlink" viewBox="0 0 73.97 12.78"><defs><linearGradient id="linear-gradient" x1="1.6" y1="9.04" x2="23.43" y2="9.04" gradientUnits="userSpaceOnUse"><stop offset="0" stop-color="#2484c6"/><stop offset="1" stop-color="#f15a29" stop-opacity="0"/></linearGradient></defs><path d="M31.34,3.36a4.77,4.77,0,0,1,2.48.6,3.89,3.89,0,0,1,1.52,1.71,6,6,0,0,1,.51,2.57,6.14,6.14,0,0,1-.51,2.59,3.89,3.89,0,0,1-1.52,1.71,4.68,4.68,0,0,1-2.48.61H27.46V3.36Zm-2.76,8.73h2.76a3.43,3.43,0,0,0,1.88-.47,2.9,2.9,0,0,0,1.12-1.34,5.12,5.12,0,0,0,.37-2,5,5,0,0,0-.37-2,3,3,0,0,0-1.12-1.34,3.52,3.52,0,0,0-1.88-.47H28.58Z" transform="translate(-1.6 -2.35)"/><path d="M40.88,13.31a3.75,3.75,0,0,1-2-.5,3.15,3.15,0,0,1-1.23-1.37,4.56,4.56,0,0,1-.42-2,4.54,4.54,0,0,1,.42-2,3.29,3.29,0,0,1,1.23-1.38,4.37,4.37,0,0,1,4.06,0,3.24,3.24,0,0,1,1.24,1.38,4.69,4.69,0,0,1,.41,2,4.7,4.7,0,0,1-.41,2,3.11,3.11,0,0,1-1.24,1.37A3.75,3.75,0,0,1,40.88,13.31Zm0-1.05a2.63,2.63,0,0,0,1.39-.35,2.16,2.16,0,0,0,.86-1,3.6,3.6,0,0,0,.29-1.49A3.58,3.58,0,0,0,43.13,8a2.14,2.14,0,0,0-.86-1,2.63,2.63,0,0,0-1.39-.35A2.68,2.68,0,0,0,39.49,7a2.2,2.2,0,0,0-.86,1,3.58,3.58,0,0,0-.29,1.48,3.6,3.6,0,0,0,.29,1.49,2.22,2.22,0,0,0,.86,1A2.68,2.68,0,0,0,40.88,12.26Z" transform="translate(-1.6 -2.35)"/><path d="M51.64,5.73l2.27,5.92L56,5.73h1.16l-2.59,7.42H53.39L51.21,7.53,49,13.15H47.87l-2.6-7.42h1.16l2.08,5.92,2.27-5.92Z" transform="translate(-1.6 -2.35)"/><path d="M62.85,6.71l-.17,0H62.5A2.68,2.68,0,0,0,61,7.09a2.9,2.9,0,0,0-1,1.12,3.21,3.21,0,0,0-.37,1.56v3.44H58.52V5.79h1.13V7.35a4,4,0,0,1,.63-.83,3.16,3.16,0,0,1,1-.64,3.27,3.27,0,0,1,1.34-.25h.32l.29,0Z" transform="translate(-1.6 -2.35)"/><path d="M67.53,13.13l-.24,0-.28,0-.26,0a2.69,2.69,0,0,1-2.16-.7,3.44,3.44,0,0,1-.71-2.43V2.35H65v7.73a2.48,2.48,0,0,0,.46,1.72,1.77,1.77,0,0,0,1.47.35.93.93,0,0,0,.23,0l.17,0Z" transform="translate(-1.6 -2.35)"/><path d="M71.75,13.31a3.62,3.62,0,0,1-2-.5,2.94,2.94,0,0,1-1.16-1.37,4.86,4.86,0,0,1-.38-2,4.84,4.84,0,0,1,.38-2,3.07,3.07,0,0,1,1.16-1.38,3.71,3.71,0,0,1,2-.5,2.84,2.84,0,0,1,2.69,1.54V2.35h1.13v10.8H74.44V11.78a3.05,3.05,0,0,1-1,1.09A3,3,0,0,1,71.75,13.31Zm-2.4-3.87a3.78,3.78,0,0,0,.27,1.49,2.12,2.12,0,0,0,.81,1,2.53,2.53,0,0,0,1.37.35,2.78,2.78,0,0,0,1.41-.35,2.25,2.25,0,0,0,.9-1,3.31,3.31,0,0,0,.31-1.49A3.29,3.29,0,0,0,74.11,8a2.22,2.22,0,0,0-.9-1,2.78,2.78,0,0,0-1.41-.35A2.53,2.53,0,0,0,70.43,7a2.1,2.1,0,0,0-.81,1A3.76,3.76,0,0,0,69.35,9.44Z" transform="translate(-1.6 -2.35)"/><path d="M1.67,8.34C2,6,2.18,4.11,3.5,3.5a3.39,3.39,0,0,1,3.36.71C8.23,5.39,8.19,7.37,8.7,7.34,9,7.32,9,6.79,9.4,6a6.23,6.23,0,0,1,2.07-2.3,5.83,5.83,0,0,1,4.61-.54c.71.24,1.81.61,2.18,1.54.6,1.49-1.07,3.4-.76,3.6s.65-.58,1.77-1.06A3.17,3.17,0,0,1,21,6.93a3,3,0,0,1,2.36,3.48C23,11.6,21.55,12,20.92,12.18a2.82,2.82,0,0,1-2.24-.06c-.68-.42-.89-1.23-1-1.18s.09.57.18,1.54a3.12,3.12,0,0,1,0,1.12,2.31,2.31,0,0,1-1.36,1.3c-.86.38-1.75.24-3.48-.06a6.48,6.48,0,0,1-1.77-.41c-1.65-1-1.59-3.75-1.9-3.72s.18,2.6-1.06,3.42a2.37,2.37,0,0,1-1.65.18A6.09,6.09,0,0,1,3,12.6a5,5,0,0,1-1.29-2.25A5.13,5.13,0,0,1,1.67,8.34Z" transform="translate(-1.6 -2.35)" style="fill:url(#linear-gradient)"/></svg>